<?xml version="1.0" encoding="utf-8"?>
<!-- Generator: Adobe Illustrator 16.0.3, SVG Export Plug-In . SVG Version: 6.00 Build 0)  -->
<!DOCTYPE svg PUBLIC "-//W3C//DTD SVG 1.1//EN" "http://www.w3.org/Graphics/SVG/1.1/DTD/svg11.dtd">
<svg version="1.1" id="Layer_1" xmlns="http://www.w3.org/2000/svg" xmlns:xlink="http://www.w3.org/1999/xlink" x="0px" y="0px"
	 width="300px" height="300px" viewBox="0 0 300 300" enable-background="new 0 0 300 300" xml:space="preserve">
<rect x="0" y="-0.001" fill="none" width="300" height="300.002"/>
<g>
	<g>
		<g>
			<path fill="#4ABC96" d="M0,150.004C0,67.155,67.159-0.001,149.999-0.001C232.842-0.001,300,67.155,300,150.004
				C300,232.842,232.842,300,149.999,300C67.159,300,0,232.842,0,150.004z"/>
		</g>
	</g>
	<g>
		<path fill="#FFFFFF" d="M150,62.223C98.64,62.223,57,102.905,57,153.08c0,50.178,41.641,90.855,93.001,90.855
			c51.357,0,93-40.678,93-90.857C243,102.905,201.357,62.223,150,62.223z"/>
		<g>
			<path fill="none" d="M150,62.223c-45.926,0-84.053,32.534-91.611,75.289h183.23C234.045,94.757,195.926,62.223,150,62.223z"/>
			<path fill="#DDDFDF" d="M150.063,65.799c74.208,0.616,92.38,69.603,92.38,69.603C235.521,90.606,196.738,56.063,150,56.063
				c-46.732,0-85.388,34.543-92.305,79.338C57.698,135.401,75.86,65.18,150.063,65.799z"/>
		</g>
	</g>
	<path fill="#3D4040" d="M150,265c63.517,0,115-51.482,115-115c0-63.519-51.482-115.001-115-115.001C86.481,34.999,35,86.481,35,150
		C35,213.518,86.481,265,150,265z M150,56.562c51.611,0,93.437,41.828,93.437,93.438c0,51.609-41.826,93.438-93.437,93.438
		c-51.609,0-93.438-41.828-93.438-93.438C56.563,98.39,98.391,56.562,150,56.562z M150,169.492c26.044,0,50.808-6.924,71.875-19.074
		c-3.283,40.066-34.391,71.457-71.875,71.457c-37.484,0-68.604-31.42-71.875-71.486C99.192,162.539,123.956,169.492,150,169.492z
		 M92.5,114.062c0,11.909,6.432,21.563,14.375,21.563c7.941,0,14.375-9.653,14.375-21.563c0-11.908-6.434-21.563-14.375-21.563
		C98.932,92.499,92.5,102.153,92.5,114.062z M178.75,114.062c0,11.909,6.445,21.563,14.375,21.563
		c7.932,0,14.375-9.653,14.375-21.563c0-11.908-6.443-21.563-14.375-21.563C185.195,92.499,178.75,102.153,178.75,114.062z"/>
</g>
</svg>
