<?xml version="1.0" encoding="utf-8"?>
<!-- Generator: Adobe Illustrator 16.0.3, SVG Export Plug-In . SVG Version: 6.00 Build 0)  -->
<!DOCTYPE svg PUBLIC "-//W3C//DTD SVG 1.1//EN" "http://www.w3.org/Graphics/SVG/1.1/DTD/svg11.dtd">
<svg version="1.1" id="Layer_1" xmlns="http://www.w3.org/2000/svg" xmlns:xlink="http://www.w3.org/1999/xlink" x="0px" y="0px"
	 width="300px" height="300px" viewBox="0 0 300 300" enable-background="new 0 0 300 300" xml:space="preserve">
<rect y="-0.001" fill="none" width="300" height="300.002"/>
<g>
	<g>
		<g>
			<path fill="#4ABC96" d="M0,149.997C0,67.153,67.157,0,149.997,0C232.844,0,300,67.153,300,149.997
				c0,82.846-67.156,150.002-150.003,150.002C67.157,299.999,0,232.843,0,149.997z"/>
		</g>
	</g>
	<g>
		<path fill="#3D4040" d="M35.443,149.905c0-63.773,51.694-115.475,115.474-115.475c63.778,0,115.474,51.702,115.474,115.475
			c0,63.777-51.695,115.479-115.474,115.479C87.137,265.384,35.443,213.684,35.443,149.905z"/>
		<path fill="#B5BABA" d="M51.152,149.905c0-55.1,44.667-99.762,99.765-99.762c55.097,0,99.763,44.663,99.763,99.762
			c0,55.104-44.666,99.766-99.763,99.766C95.819,249.671,51.152,205.009,51.152,149.905z"/>
		<ellipse fill="#E9E9EA" cx="150.917" cy="149.905" rx="91.757" ry="89.635"/>
		<path fill="#FFFFFF" d="M150.917,66.348c-50.676,0-91.758,40.133-91.758,89.641c0,49.504,41.082,89.639,91.758,89.639
			c50.675,0,91.757-40.135,91.757-89.64C242.674,106.481,201.592,66.348,150.917,66.348z"/>
		<g>
			<path fill="#626463" d="M140.782,138.261c5.986-5.984,15.692-5.984,21.675,0c5.986,5.982,5.986,15.688,0,21.675
				c-5.982,5.979-15.688,5.979-21.675,0C134.802,153.948,134.802,144.243,140.782,138.261z"/>
			<path fill="#626463" d="M153.102,152.693c-1.088,1.089-3.339,0.603-5.022-1.086l0,0c-1.688-1.688-2.174-3.938-1.082-5.024
				l35.583-35.592c1.088-1.086,3.34-0.602,5.027,1.092l0,0c1.688,1.684,2.176,3.938,1.082,5.023L153.102,152.693z"/>
			<path fill="#626463" d="M148.077,151.096c-1.249-1.245-1.249-3.269,0-4.517l0,0c1.244-1.244,3.266-1.25,4.515,0l51.6,51.603
				c1.248,1.243,1.248,3.267,0,4.517l0,0c-1.238,1.243-3.266,1.243-4.516,0L148.077,151.096z"/>
		</g>
		<g>
			<path fill="none" d="M150.917,66.348c-45.314,0-82.927,32.098-90.389,74.278h180.781
				C233.842,98.446,196.23,66.348,150.917,66.348z"/>
			<path fill="#DDDFDF" d="M150.98,69.873c73.217,0.61,91.146,68.671,91.146,68.671c-6.828-44.195-45.099-78.274-91.21-78.274
				c-46.109,0-84.245,34.079-91.068,78.274C59.849,138.544,77.769,69.262,150.98,69.873z"/>
		</g>
	</g>
</g>
</svg>
