<?xml version="1.0" encoding="utf-8"?>
<!-- Generator: Adobe Illustrator 16.0.3, SVG Export Plug-In . SVG Version: 6.00 Build 0)  -->
<!DOCTYPE svg PUBLIC "-//W3C//DTD SVG 1.1//EN" "http://www.w3.org/Graphics/SVG/1.1/DTD/svg11.dtd">
<svg version="1.1" id="Layer_1" xmlns="http://www.w3.org/2000/svg" xmlns:xlink="http://www.w3.org/1999/xlink" x="0px" y="0px"
	 width="300px" height="300px" viewBox="0 0 300 300" enable-background="new 0 0 300 300" xml:space="preserve">
<g>
	<g>
		<g>
			<g>
				<g>
					<path fill="#4ABC96" d="M0,149.999C0,67.15,67.158-0.003,150.002-0.003c82.838,0,149.996,67.153,149.996,150.002
						c0,82.841-67.158,150.003-149.996,150.003C67.158,300.002,0,232.84,0,149.999z"/>
				</g>
			</g>
		</g>
	</g>
	<g>
		<g>
			<path fill="#505251" d="M169.693,238.695c-4.811-13.998-7.535-17.643-16.676-17.643c-9.02,0-12.152,4.625-16.666,17.643
				c-15.4,1.49-26.207,4.992-26.207,9.066c0,5.436,19.193,9.84,42.873,9.84s42.877-4.404,42.877-9.84
				C195.895,243.688,185.088,240.189,169.693,238.695z"/>
		</g>
		<g>
			<g>
				<path fill="#3D4040" d="M261.521,213.217c0,7.164-5.807,12.971-12.967,12.971c0,0-53.363,7.518-98.35,7.518
					c-34.439,0-92.961-7.518-92.961-7.518c-7.166,0-12.971-5.807-12.971-12.971V85.135c0-7.16,5.805-12.966,12.971-12.966h191.311
					c7.16,0,12.967,5.806,12.967,12.966V213.217z"/>
			</g>
		</g>
		<g>
			<rect x="53.035" y="81.532" fill="#5DC0C1" width="199.266" height="134.775"/>
		</g>
		<g>
			<circle fill="#FDF2F7" cx="112.576" cy="152.002" r="10.383"/>
		</g>
		<g>
			<circle fill="#FDF2F7" cx="164.929" cy="134.331" r="10.38"/>
		</g>
		<g>
			<circle fill="#FDF2F7" cx="216.619" cy="110.916" r="10.383"/>
		</g>
		<g>
			<g>
				<g>
					<path fill="#357180" d="M251.824,90.733c-9.01-2.309-15.648,4.756-24.053,13.684c-0.607,0.647-1.227,1.305-1.855,1.966
						c0.676,1.374,1.086,2.9,1.086,4.533c0,5.731-4.652,10.38-10.385,10.38c-1.906,0-3.668-0.551-5.203-1.443
						c-8.971,6.851-20.316,12.531-36.115,13.975c-0.008,0-0.027,0.005-0.037,0.005c0.006,0.171,0.047,0.328,0.047,0.499
						c0,5.731-4.648,10.381-10.381,10.381c-4.551,0-8.377-2.946-9.777-7.022c-5.908,1.406-11.773,2.924-16.297,4.099l-4.025,1.036
						c-4.902,1.254-9.32,2.484-13.373,3.872c0.936,1.554,1.504,3.358,1.504,5.306c0,5.732-4.648,10.381-10.381,10.381
						c-4.236,0-7.869-2.545-9.482-6.18c-7.207,5.629-13.613,13.701-20.66,26.381c-4.973,8.947-10.246,13.48-15.682,13.48
						c-0.109,0-0.217,0-0.322-0.006c-6.781-0.221-11.598-7.406-13.396-10.574v30.822h199.266V90.872L251.824,90.733z"/>
				</g>
				<g>
					<g>
						<path fill="#FDF7FA" d="M53.012,180.887v4.631c1.799,3.168,6.734,10.385,13.521,10.605c0.105,0.006,0.213,0.006,0.318,0.006
							c5.436,0,10.709-4.533,15.682-13.475c15.475-27.844,27.848-33.497,52.396-39.766l4.021-1.035
							c10.314-2.674,27.588-7.147,36.451-7.962c27.111-2.475,41.17-17.407,52.465-29.406c8.41-8.933,15.395-15.982,24.406-13.679
							l-0.014-2.063c-10.199-2.605-17.041,4.856-25.924,14.293c-11.055,11.74-24.813,26.353-51.129,28.753
							c-9.035,0.828-26.404,5.33-36.783,8.021l-4.016,1.037c-25.16,6.42-37.844,12.217-53.715,40.777
							c-4.654,8.373-9.4,12.559-14.092,12.393c-7.234-0.236-12.291-10.732-12.342-10.838L53.012,180.887z"/>
					</g>
					<g>
						<path fill="#FDF7FA" d="M53.035,185.484L53.035,185.484c-0.006-0.01-0.01-0.014-0.01-0.018
							C53.029,185.471,53.029,185.475,53.035,185.484z"/>
					</g>
				</g>
			</g>
		</g>
	</g>
</g>
<rect x="0" y="0" fill="none" width="300" height="300"/>
</svg>
